# xmcd
#
# Track frame offsets:
#  150
#  14266
#  32342
#  53782
#  68836
#  93843
#  108010
#
# Disc length: 1648 seconds
#
# Revision: 0
# Processed by: cddbd v1.5.1PL2 Copyright (c) Steve Scherf et al.
# Submitted via: Collectorz.com_Music_Collector 6.9
#
DISCID=46066e07
DTITLE=Karen and Kelley Shuttlesworth - John Bedsole - Cactus Creek
DYEAR=1999
DGENRE=
TTITLE0=Karen and Kelley Shuttlesworth - Spin Me All You Want To
TTITLE1=Kelley Shuttlesworth - Lovin' All Night
TTITLE2=Kelley Shuttlesworth - Broken Promises
TTITLE3=Kelley Shuttlesworth - Ragtop
TTITLE4=Kelley Shuttlesworth - What'd I Do Wrong?
TTITLE5=John Bedsole - Road To No Where
TTITLE6=Kelley Shuttlesworth - Stone Cold Love
EXTD=
EXTT0=
EXTT1=
EXTT2=
EXTT3=
EXTT4=
EXTT5=
EXTT6=
PLAYORDER=
